#!OML:ASF F:\VICON\USERDATA\INSTALL\rory3\rory3.ASF
:FULLY-SPECIFIED
:DEGREES
10
root -1.3676300000000006 17.9093 -21.04489999999997 4.65751 -1.0021199999999975 -2.5543200000000006
lfemur -48.95759999999996 5.607900000000005 -19.1287
ltibia 83.38769999999998
lfoot 2.1614799999999983 -10.9668
ltoes -8.968959999999996
rfemur 7.896070000000025 6.156299999999996 29.152
rtibia 36.238099999999974
rfoot 5.3871600000000015 -5.053339999999995
rtoes -18.41190000000002
lowerback 1.0 1.9878999999999993 5.066710000000008
upperback -0.23157099999999955 3.5487699999999975 0.9946589999999997
thorax -7.852450000000002 1.5373900000000016 -2.5171499999999987
lowerneck -17.2123 -5.311510000000001 -1.88221
upperneck 15.239 -7.18874 2.245119999999999
head 7.67523 -3.3149899999999994 0.21133499999999994
lclavicle 3.87630000000001e-15 2.623960000000001e-14
lhumerus -66.14399999999998 -6.176150000000001 95.3981
lradius 92.41999999999999
lwrist 35.2409
lhand -28.7601 1.683699999999996
lfingers 7.12502
lthumb -2.1199899999999996 31.652900000000002
rclavicle 3.87630000000001e-15 2.623960000000001e-14
rhumerus -23.258300000000027 16.28750000000001 -92.9327
rradius 121.32399999999998
rwrist -22.152400000000004
rhand -19.5912 1.0
rfingers 7.12502
rthumb 6.73444 16.754399999999986
11
root -1.32221 18.0922 -19.95169999999998 3.87874 1.04475 -2.1100500000000015
lfemur -47.33180000000006 2.59039 -19.5439
ltibia 73.98080000000003
lfoot 1.0544299999999969 -10.7547
ltoes -12.8498
rfemur 13.237199999999921 5.068260000000002 28.722700000000003
rtibia 30.977599999999967
rfoot 16.460899999999985 -6.316890000000003
rtoes -17.449899999999996
lowerback 1.0 1.7482499999999996 4.998109999999992
upperback -1.0325000000000006 3.352659999999998 0.934761
thorax -9.64742 1.370540000000001 -2.599709999999993
lowerneck -17.303500000000003 -5.602020000000001 -1.79534
upperneck 16.5923 -7.628749999999998 2.097899999999998
head 8.141239999999998 -3.51236 0.07278809999999891
lclavicle 3.975689999999991e-15 6.361110000000006e-15
lhumerus -69.04320000000001 -4.603830000000004 94.7406
lradius 93.824
lwrist 35.1695
lhand -28.3683 0.9927189999999948
lfingers 7.12502
lthumb -1.7416399999999996 30.965399999999995
rclavicle 3.975689999999991e-15 6.361110000000006e-15
rhumerus -23.816900000000025 15.873200000000004 -92.1623
rradius 122.09600000000002
rwrist -21.0969
rhand -18.5116 1.0
rfingers 7.12502
rthumb 7.77652 14.334700000000003
12
root -1.1779100000000005 18.2796 -18.643799999999928 3.1817200000000008 -1.5539500000000008 -1.4540099999999971
lfemur -43.55509999999998 2.9761799999999994 -20.4698
ltibia 63.887600000000006
lfoot -0.03944209999999604 -9.387800000000002
ltoes -13.671599999999996
rfemur 18.368699999999983 8.089480000000002 27.2921
rtibia 27.572699999999912
rfoot 24.807999999999975 -4.610419999999999
rtoes -14.677100000000017
lowerback 1.0 2.9473500000000046 5.2246199999999945
upperback -0.3758329999999998 4.755459999999996 0.39376199999999983
thorax -7.386169999999998 2.1211 -3.4233300000000035
lowerneck -17.411299999999997 -5.904379999999997 -1.75289
upperneck 17.020900000000005 -8.123720000000002 2.3533600000000003
head 8.32409 -3.7081099999999987 0.07843579999999872
lclavicle -4.050239999999996e-14 9.144090000000005e-15
lhumerus -70.82410000000002 -3.0742199999999924 93.696
lradius 95.7052
lwrist 35.3924
lhand -27.6801 0.37536599999999654
lfingers 7.12502
lthumb -1.0769399999999998 30.352400000000003
rclavicle -4.050239999999996e-14 9.144090000000005e-15
rhumerus -23.70200000000003 16.098500000000005 -91.4968
rradius 122.52800000000005
rwrist -20.4491
rhand -18.809 1.0
rfingers 7.12502
rthumb 7.48948 13.373499999999998
13
root -1.2152200000000002 18.3482 -17.682400000000037 3.3573900000000005 1.6706600000000014 -1.3301099999999992
lfemur -42.687699999999985 0.13859200000000582 -20.118800000000004
ltibia 53.639999999999986
lfoot 0.7726080000000031 -11.837099999999998
ltoes -14.090900000000005
rfemur 19.706699999999962 8.370300000000004 29.534799999999997
rtibia 28.515499999999946
rfoot 27.5813 -5.872860000000005
rtoes 0.8709740000000012
lowerback 1.0 2.26299 4.446989999999993
upperback -1.0268100000000002 3.820599999999997 0.5362389999999994
thorax -8.82524 1.6421400000000002 -2.749410000000004
lowerneck -17.417700000000004 -6.1132399999999985 -1.7545999999999997
upperneck 17.59140000000001 -8.546350000000004 2.8682499999999997
head 8.553069999999998 -3.841500000000001 0.1855599999999999
lclavicle 4.283810000000004e-14 2.4649299999999994e-14
lhumerus -72.6174 -1.6886299999999999 92.7819
lradius 98.05290000000001
lwrist 35.3813
lhand -28.3964 0.5440840000000033
lfingers 7.12502
lthumb -1.7687300000000015 30.5165
rclavicle 4.283810000000004e-14 2.4649299999999994e-14
rhumerus -24.02719999999998 16.528000000000006 -91.1539
rradius 122.216
rwrist -20.516
rhand -19.5976 1.0
rfingers 7.12502
rthumb 6.72829 13.758099999999995
14
root -1.2272899999999998 18.3583 -16.674899999999962 4.41297 3.217859999999994 -2.022460000000003
lfemur -42.338100000000004 -1.147260000000002 -19.094799999999996
ltibia 44.0153
lfoot 2.170570000000002 -14.014700000000001
ltoes -13.174300000000002
rfemur 18.352799999999988 9.66144999999999 32.078500000000005
rtibia 33.12429999999991
rfoot 26.56870000000002 -6.308600000000003
rtoes 10.843100000000014
lowerback 1.0 2.0297799999999975 4.6088300000000055
upperback -1.690349999999998 3.5678099999999997 0.7919740000000002
thorax -9.3519 1.4945099999999987 -2.5129099999999975
lowerneck -17.521099999999997 -6.362659999999997 -1.82054
upperneck 17.84230000000001 -8.930640000000004 3.08068
head 8.680129999999998 -3.9965099999999976 0.2092089999999993
lclavicle -1.654880000000003e-14 1.6697899999999972e-14
lhumerus -73.98400000000002 -0.48811699999998925 92.1196
lradius 100.367
lwrist 34.9659
lhand -26.648300000000003 -0.5743150000000048
lfingers 7.12502
lthumb -0.08044680000000559 29.405400000000004
rclavicle -1.654880000000003e-14 1.6697899999999972e-14
rhumerus -25.078300000000045 16.874900000000004 -91.3137
rradius 121.479
rwrist -21.3942
rhand -18.8777 1.0
rfingers 7.12502
rthumb 7.4232 14.380199999999997
15
root -1.2033099999999997 18.3243 -15.613999999999976 4.53725 3.1618700000000035 -2.6707099999999997
lfemur -40.322899999999976 -0.7736189999999978 -18.659799999999997
ltibia 36.21240000000003
lfoot 2.4659700000000004 -13.4527
ltoes -16.395099999999992
rfemur 17.34290000000003 10.741799999999998 33.609199999999994
rtibia 39.446000000000026
rfoot 23.4876 -7.06045
rtoes 9.652980000000008
lowerback 1.0 2.1075900000000014 4.8968499999999935
upperback -1.5124199999999983 3.695220000000001 0.940375
thorax -8.85594 1.5650200000000014 -2.510349999999998
lowerneck -18.209 -6.338029999999997 -1.93018
upperneck 17.78419999999999 -8.962690000000004 3.5679599999999994
head 8.814389999999998 -3.9548300000000007 0.3635469999999996
lclavicle -2.1915999999999985e-14 -9.144090000000017e-15
lhumerus -74.2979 0.7046140000000021 91.7272
lradius 102.743
lwrist 33.8845
lhand -26.5148 -0.677299999999998
lfingers 7.12502
lthumb 0.048523099999997044 29.302400000000006
rclavicle -2.1915999999999985e-14 -9.144090000000017e-15
rhumerus -25.889300000000027 17.362100000000005 -91.8186
rradius 119.62099999999997
rwrist -21.1756
rhand -19.0451 1.0
rfingers 7.12502
rthumb 7.26162 14.456800000000003
16
root -1.2011599999999998 18.2504 -14.596100000000025 4.27457 3.531389999999996 -2.6147299999999998
lfemur -38.34059999999998 0.023883699999994956 -19.5193
ltibia 31.643300000000043
lfoot 1.3813799999999998 -12.306000000000003
ltoes -21.744000000000003
rfemur 15.690600000000002 10.5795 34.14180000000001
rtibia 47.141500000000036
rfoot 21.879499999999993 -8.03751
rtoes 4.05408
lowerback 1.0 2.1245499999999975 4.489240000000002
upperback -1.266139999999999 3.6580599999999985 0.924549
thorax -8.80332 1.5710600000000023 -2.301990000000003
lowerneck -18.169600000000003 -6.348980000000003 -1.86567
upperneck 16.826400000000007 -8.964849999999995 3.6782100000000004
head 8.483889999999999 -3.962399999999998 0.405773
lclavicle -1.2970699999999969e-14 -2.6637100000000034e-14
lhumerus -73.68859999999998 1.0868800000000096 91.9451
lradius 104.505
lwrist 32.8866
lhand -26.0046 -0.8789710000000106
lfingers 7.12502
lthumb 0.5413319999999966 29.100099999999998
rclavicle -1.2970699999999969e-14 -2.6637100000000034e-14
rhumerus -26.89569999999999 17.56719999999999 -92.319
rradius 117.21999999999997
rwrist -20.4696
rhand -19.2171 1.0
rfingers 7.12502
rthumb 7.0955699999999995 16.52620000000001
17
root -1.1911400000000003 18.1687 -13.554900000000053 3.98077 3.7892000000000015 -1.966390000000002
lfemur -36.3713 1.9544999999999992 -21.5881
ltibia 29.745600000000007
lfoot 0.9390739999999969 -12.2042
ltoes -22.26529999999998
rfemur 13.28249999999994 10.018399999999989 33.7076
rtibia 55.9381
rfoot 20.42230000000001 -10.169099999999998
rtoes 17.882900000000017
lowerback 1.0 2.212629999999999 3.619390000000004
upperback -0.8350370000000007 3.589819999999996 0.6343440000000005
thorax -8.37215 1.5888700000000002 -2.098510000000002
lowerneck -18.1282 -6.35348 -1.6862299999999997
upperneck 15.789799999999996 -8.992809999999997 3.836230000000001
head 8.127919999999998 -3.9727599999999996 0.4436060000000002
lclavicle -4.0750900000000005e-14 2.2263900000000037e-14
lhumerus -72.15079999999996 0.6875330000000028 92.3004
lradius 105.96
lwrist 32.5319
lhand -26.281699999999997 -1.2061100000000078
lfingers 7.12502
lthumb 0.2736749999999981 28.773500000000013
rclavicle -4.0750900000000005e-14 2.2263900000000037e-14
rhumerus -28.404100000000028 17.081699999999994 -93.0477
rradius 114.49900000000001
rwrist -21.4096
rhand -17.6515 1.0
rfingers 7.12502
rthumb 8.60664 14.112000000000005
18
root -1.19038 17.9873 -12.537799999999997 3.3922800000000004 4.344819999999997 -1.2191999999999987
lfemur -34.9276 3.863869999999999 -23.750899999999998
ltibia 30.745400000000046
lfoot 0.6267700000000027 -13.407900000000001
ltoes -23.224900000000012
rfemur 10.247499999999958 8.639719999999997 32.88949999999999
rtibia 65.7161
rfoot 18.795200000000023 -11.957799999999995
rtoes 7.011469999999997
lowerback 1.0 2.1361500000000007 2.735099999999996
upperback -0.3518509999999999 3.3185599999999997 0.3038120000000014
thorax -8.16853 1.4972200000000009 -1.9100000000000013
lowerneck -18.2911 -6.477799999999998 -1.6161399999999997
upperneck 15.194700000000003 -9.186190000000003 4.040580000000001
head 7.969920000000001 -4.0504299999999995 0.4793609999999997
lclavicle 2.2462699999999993e-14 -9.342879999999983e-15
lhumerus -69.9822 -0.2459239999999916 92.8648
lradius 107.23
lwrist 32.6034
lhand -27.6718 -0.40303199999999073
lfingers 7.12502
lthumb -1.0689199999999985 29.57399999999999
rclavicle 2.2462699999999993e-14 -9.342879999999983e-15
rhumerus -30.015599999999978 16.53929999999999 -93.8794
rradius 110.99699999999999
rwrist -19.338
rhand -17.2264 1.0
rfingers 7.12502
rthumb 9.016899999999998 16.889099999999992
